# xmcd
#
# Track frame offsets:
#  150
#  14953
#  32575
#  46649
#  62171
#  78489
#  99443
#  115431
#  133315
#  153416
#  169075
#  187153
#
# Disc length: 2851 seconds
#
# Revision: 0
# Processed by: cddbd v1.5.2PL0 Copyright (c) Steve Scherf et al.
# Submitted via: Collectorz.com_Music_Collector 6.11
#
DISCID=a50b210c
DTITLE=Marc James - King of Glory, King of Grief
DYEAR=1900
DGENRE=
TTITLE0=Wake Up
TTITLE1=Abba Father
TTITLE2=Help Me To Find
TTITLE3=Sacred King
TTITLE4=King of Grief
TTITLE5=I Will Praise You
TTITLE6=Ancient Wells
TTITLE7=Thank You
TTITLE8=Let The Power Of The Gospel
TTITLE9=No Shame
TTITLE10=At Your Feet
TTITLE11=Tend To Me
EXTD=
EXTT0=
EXTT1=
EXTT2=
EXTT3=
EXTT4=
EXTT5=
EXTT6=
EXTT7=
EXTT8=
EXTT9=
EXTT10=
EXTT11=
PLAYORDER=
